<svg version="1.1" id="svg1149" xml:space="preserve" width="1626.4004" height="244.39844">
  <g>
    <path id="path50" style="fill:#004992;stroke:none;stroke-width:0.1" d="M 188.50049,40.000488 170.2002,77.699707 c -9.99999,20.799979 -18.20069,38.100493 -18.20069,38.500493 0,0.49999 6.39981,0.7998 14.29981,0.7998 h 14.20019 l 8.40088,-17.500488 c 7.29999,-15.199985 10.1001,-19.799216 10.1001,-16.699219 0,0.499999 12.79894,27.399347 28.39892,59.799317 l 28.30079,58.8999 33.19921,0.30029 33.10108,0.20069 V 144.49951 87 H 309 295.99951 L 295.80029,131.2002 295.5,175.5 h -11.39941 c -9.09999,0 -11.60069,-0.3 -12.20069,-1.5 -1,-1.7 -28.09943,-57.19936 -50.39941,-103.299316 L 206.6001,40.000488 h -9.09961 z m 107.49902,0 V 54 67.999512 H 309 322.00049 V 54 40.000488 H 309 Z M 967.02832,109.8457 c -4.69687,-0.23906 -9.02783,3.52882 -9.02783,9.15381 0,6.99999 6.89942,11.30097 12.89941,8.00098 4.6,-2.4 5.0998,-12.50098 0.79981,-15.50098 -1.5,-1.05 -3.10577,-1.57412 -4.67139,-1.65381 z m -210.83203,0.15381 c -4.75312,-0.43125 -9.19629,3.30001 -9.19629,9 0,8.19999 8.89971,12.0999 14.69971,6.3999 2.19999,-2.19999 2.50097,-3.2001 2.00097,-7.10009 -0.3,-3.3 -1.20078,-5.19991 -2.80078,-6.39991 -1.5,-1.14999 -3.11924,-1.75615 -4.70361,-1.8999 z m -89.9458,0.004 c -3.93066,0.51171 -7.25098,3.93311 -7.25098,8.9956 0,5.4 3.4005,9 8.50049,9 7.89999,0 11.70038,-10.09952 5.90039,-15.49951 -2.2125,-2.0625 -4.79151,-2.80312 -7.1499,-2.49609 z m 421.78711,0.0718 c -3.6625,0.15 -7.2872,0.77374 -9.6372,1.82373 -6.8,3.1 -13.4004,13.30079 -13.4004,20.80079 0,2.09999 -0.5,2.2998 -4.5,2.2998 h -4.5 v 6 6 h 4.5 4.5 v 25.5 25.5 h 7.5 7.5 V 172.5 147 h 6.4995 6.501 v -6 -6 h -6.6006 -6.7002 l 0.6006,-3.60059 c 1.1,-6.69999 5.9998,-9.99902 12.7998,-8.49902 3.9,0.9 4.0005,0.80029 5.5005,-2.69971 2.9,-7.09999 2.8998,-7.80107 -0.7002,-9.10107 -2.5,-0.85 -6.2003,-1.17393 -9.8628,-1.02393 z m -590.7378,7.02393 c -0.49999,0 -3.69932,1.09981 -7.29931,2.2998 l -6.50098,2.30127 -0.29883,6.59912 L 482.90039,135 H 479.2002 475.5 l 0.30029,6 0.39991,6 H 479.6001 483 v 18.3999 c 0,10.99999 0.5001,19.7002 1.1001,21.7002 1.5,4.49999 6.49922,9.59951 10.69922,10.99951 3.49999,1.2 20.60127,0.9001 21.80127,-0.3999 0.7,-0.6 0.7,-12.70039 0,-13.40039 -0.1,-0.2 -2.00049,0.40117 -4.00049,1.20117 -4.5,1.9 -9.7003,1.19931 -12.3003,-1.70069 -1.59999,-1.69999 -1.79912,-4.3004 -2.09912,-19.40039 L 497.79932,147 h 8.60009 8.6001 v -6 -6 H 506.50049 498 v -9 c 0,-4.99999 -0.3002,-9.00039 -0.7002,-8.90039 z M 709.5,133.99951 c -13.19999,0 -21.7002,6.59991 -21.7002,16.8999 0,8.8 4.50031,14.00108 16.8003,19.60108 3.99999,1.8 8.10029,4.19941 9.30029,5.39941 2.5,2.5 2.79951,7.30069 0.49951,9.20069 -2.6,2.09999 -12.69951,1.49951 -16.99951,-1.00049 -1.9,-1.2 -3.70049,-2.10059 -4.00049,-2.10059 -0.5,0 -5.39941,10.50049 -5.39941,11.50049 0,0.3 1.89932,1.49971 4.29931,2.69971 3.6,2 5.69972,2.2998 14.69971,2.2998 9.29999,0 11.10098,-0.29902 15.50098,-2.49902 11.59999,-5.9 12.79911,-22.40099 2.09912,-30.50098 -1.8,-1.4 -6.09913,-3.69912 -9.59912,-5.09912 -10.29999,-4.1 -12.39981,-6.09971 -11.29981,-10.19971 1.1,-4.29999 10.49864,-5.09999 17.59864,-1.5 1.59999,0.8 3.00107,1.29864 3.10107,1.09864 1.2,-1.7 3.69922,-10.19981 3.19922,-11.29981 -0.3,-0.8 -2.89971,-2.09892 -5.69971,-2.89892 -2.89999,-0.9 -8.4999,-1.60108 -12.3999,-1.60108 z m 169.59961,0 c -7.09999,0.1 -13.1001,1.8 -16.1001,4.5 -1.9,1.7 -1.99892,1.60059 -2.89892,-0.89941 -1,-2.4 -1.5006,-2.6001 -6.60059,-2.6001 h -5.50049 v 31.5 31.5 h 7.5 7.5 v -22.8999 -22.99951 l 2.6001,-2.00098 c 4.49999,-3.5 10.00079,-4.49971 14.80078,-2.69971 6.89999,2.6 7.09893,3.30081 7.39893,28.30078 L 888.09961,198 h 7.5 7.5 l -0.30029,-24.30029 -0.29883,-24.39991 -3,-4.80029 c -2.2,-3.59999 -4.50088,-5.69922 -8.40088,-7.69922 -4.3,-2.29999 -6.60001,-2.80078 -12,-2.80078 z m 143.00099,0 c -7.1,0.1 -13.1001,1.8 -16.1001,4.5 -1.9,1.7 -2.0004,1.60059 -2.9004,-0.89941 -1,-2.4 -1.4998,-2.6001 -6.79981,-2.6001 h -5.80078 l 0.20069,30.20068 c 0.2,16.69999 0.30029,30.9 0.30029,31.5 0,0.9 2.2,1.29932 7.5,1.29932 h 7.50001 v -22.80029 c 0,-25.59998 -0.3011,-24.5002 7.3989,-27.7002 5.2,-2.2 10.5002,-1.1999 14.2002,2.6001 l 2.9004,3 0.3003,22.5 0.3003,22.40039 h 7.5 7.5 l -0.3003,-24.30029 -0.3003,-24.39991 -3,-4.80029 c -2.2,-3.59999 -4.4994,-5.69922 -8.3994,-7.69922 -4.3,-2.29999 -6.6,-2.80078 -12,-2.80078 z m 168.624,0 c -4.35,0.175 -8.4239,1.0501 -11.5239,2.6001 -6.4,3.2 -9.3014,7.5002 -9.4014,14.20019 0,9.1 4.2008,13.90021 17.8008,20.2002 8.3,3.8 10.4004,5.89932 10.4004,10.29932 0,3.59999 -2.5009,5.10058 -8.4009,5.10058 -4.2,-0.1 -7.9999,-1.19971 -13.8999,-4.1997 -0.6,-0.3 -5.6997,9.7998 -5.6997,11.2998 0,0.3 1.8993,1.49971 4.2993,2.69971 3.6,2 5.7012,2.2998 14.7012,2.2998 9,0 11.1988,-0.2998 15.2988,-2.2998 6.1,-3 9.7002,-8.89913 9.7002,-15.59912 0,-9.09999 -4.4,-14.70079 -15,-19.30079 -12.4,-5.39999 -14.3989,-6.99951 -13.3989,-10.99951 1.2,-4.39999 10.5997,-5.1996 17.6997,-1.59961 1.6,0.8 2.9996,1.29864 3.0996,1.09864 1.2,-1.7 3.7007,-10.19981 3.2007,-11.29981 -0.3,-0.8 -2.9012,-2.09892 -5.7012,-2.89892 -4.2,-1.25 -8.8248,-1.77608 -13.1748,-1.60108 z m 116.6748,0 c -5.9,0 -8.0995,0.50079 -12.4995,2.80078 -6.5,3.4 -8.9996,7.29952 -9.0996,13.99951 0,9.1 4.3004,13.99982 17.9004,20.29981 4.5,2 8.5992,4.60078 9.1992,5.80078 1.6,2.9 1.3005,6.7002 -0.4995,8.2002 -2.7,2.19999 -12.4999,1.59911 -16.8999,-0.90088 -2,-1.2 -3.8001,-2.2002 -4.1001,-2.2002 -0.5,0 -5.4009,10.80039 -5.4009,11.90039 0,0.3 2.7004,1.7 5.9004,3 5.2,2 7.2003,2.2999 15.3003,1.8999 15.3,-0.69999 22.8003,-6.7003 22.8003,-18.30029 0,-9.49999 -5.1007,-15.3001 -18.2007,-20.6001 C 1302.8998,156.29942 1300.1,153.5 1302,150 c 2.2,-4.2 10.3998,-4.79931 17.2998,-1.29932 1.6,0.8 2.9996,1.29864 3.0996,1.09864 1.3,-1.5 3.7003,-9.99874 3.3003,-11.19873 -0.3,-0.8 -2.9993,-2.2 -5.7993,-3 -2.9,-0.9 -8.501,-1.60108 -12.501,-1.60108 z m -859.39891,0.12598 c -4,-0.125 -7.85049,0.1249 -10.00049,0.7749 -8.69999,2.7 -13.19971,8.09903 -13.19971,15.99902 0,8.9 4.20041,13.80021 17.90039,20.2002 8.69999,4.2 10.59864,6.20069 10.09864,10.70068 -0.7,6.3 -10.29904,6.4999 -21.99903,0.39991 -0.6,-0.3 -5.80078,9.99941 -5.80078,11.39941 0,0.2 1.90079,1.3001 4.30078,2.6001 5,2.59999 18.89933,3.5999 25.29932,1.8999 11.89999,-3.2 17.7999,-15.49913 12.3999,-26.09912 -2.6,-5 -6.59932,-8.00108 -16.29931,-12.10108 -8.3,-3.39999 -11.0001,-5.99912 -10.1001,-9.59912 1.2,-4.29999 10.69971,-5.0996 17.6997,-1.59961 1.6,0.8 2.99961,1.29864 3.09961,1.09864 1.2,-1.7 3.70069,-10.19981 3.20069,-11.29981 -0.3,-0.8 -2.89971,-2.09892 -5.69971,-2.89892 -2.75,-0.85 -6.89991,-1.3501 -10.8999,-1.4751 z m -62.87549,0.0117 c -4.675,0.0375 -9.37549,0.56299 -12.62549,1.56299 -2.7,0.79999 -5.0998,1.60029 -5.2998,1.80029 -0.5,0.4 2.90097,12.49951 3.50097,12.49951 0.2,0 1.59961,-0.60039 3.09961,-1.40039 7.1,-3.5 18.09903,-2.60009 21.99903,1.8999 3.89999,4.6 3.10096,5.20117 -6.99903,5.70117 -16.99998,0.8 -25.90088,7.09884 -27.90088,19.79883 -0.8,5.7 1.00118,13.20069 4.20118,16.70069 6.79999,7.29999 24.29952,8.5994 31.99951,2.39941 2.3,-1.8 2.39951,-1.79951 4.99951,1.00049 2.1,2.3 3.60088,2.90039 6.90088,2.90039 7.79999,0 10.0998,-2.90011 6.7998,-8.6001 -1.9,-3.2 -2.20078,-5.80031 -2.80078,-21.30029 -0.8,-19.69998 -1.99971,-24.59981 -7.19971,-29.29981 -1.79999,-1.6 -5.40019,-3.50078 -8.20019,-4.30078 -3.15,-0.95 -7.79961,-1.3998 -12.47461,-1.3623 z m 163.4502,0.0249 c -4.55,0.1125 -9.12471,0.63809 -12.07471,1.53809 -2.7,0.79999 -5.09981,1.60029 -5.29981,1.80029 -0.5,0.4 2.89952,12.49951 3.49952,12.49951 0.2,0 1.59961,-0.60039 3.0996,-1.40039 9.1,-4.6 21.5001,-1.89902 23.6001,5.00098 0.6,2.09999 0.2999,2.20009 -8.6001,2.60009 -16.99998,0.8 -25.89941,7.09884 -27.89941,19.79883 -0.8,5.7 0.99971,13.20069 4.19971,16.70069 6.79999,7.29999 24.29952,8.5994 31.99951,2.39941 2.3,-1.8 2.40098,-1.79951 5.00098,1.00049 2.19999,2.4 3.49971,2.90039 7.1997,2.90039 2.9,0 5.29981,-0.69991 6.79981,-1.8999 l 2.39941,-1.89991 -2.39941,-4.30078 c -2.2,-3.89999 -2.49961,-5.79933 -3.09961,-22.29931 -0.6,-15.79999 -1.00039,-18.7003 -2.90039,-22.8003 -2.5,-5.09999 -7.39962,-9.00068 -13.59961,-10.70068 -2.85,-0.75 -7.3753,-1.05 -11.92529,-0.9375 z m 584.9253,0.0381 c -8.3,-0.3 -9.5011,-0.0999 -15.1011,2.60009 -10.8,5.2 -16.4996,15.29982 -16.5996,29.29981 0,10.19999 2.3,17.60049 7.5,23.50049 5.7,6.39999 10.4998,8.69922 20.2998,9.19921 10.9,0.6 17.2009,-1.50029 23.4009,-7.80029 6.4,-6.29999 9,-13.39952 9,-24.49951 0,-14.19999 -4.7002,-23.79952 -14.2002,-28.99951 -4.5,-2.5 -6.5998,-3.00029 -14.2998,-3.30029 z m -332.58839,0.0967 c -2.24375,0.13437 -4.18721,0.4288 -5.51221,0.9038 -9.89999,3.3 -17.89932,13.99923 -19.29931,25.69922 -1.9,16.09999 3.89991,29.39942 15.3999,35.39942 5.69999,2.89999 18.50001,3.50117 25.5,1.20117 7.19999,-2.4 14.0999,-9.2003 16.8999,-16.80029 2.6,-7 2.89912,-19.79991 0.59912,-27.39991 -1.8,-5.99999 -8.09991,-13.5 -13.8999,-16.5 -3.525,-1.875 -12.95626,-2.90654 -19.6875,-2.50341 z M 142.5,135 l -16.1001,33.49951 -16.1997,33.50098 42.59912,-0.20069 42.60058,-0.30029 8.6001,-16.69922 8.50049,-16.59961 -7.5,-15.10107 -7.5,-15.19922 -4.70069,10.19971 c -2.59999,5.59999 -4.50009,10.60019 -4.10009,11.20019 0.3,0.5 0.20009,0.69991 -0.39991,0.39991 -0.49999,-0.3 -2.8998,3.39941 -5.2998,8.39941 L 178.59961,177 h -13.29932 c -7.29999,0 -13.30078,-0.39941 -13.30078,-0.89941 0,-0.4 4.30098,-9.60128 9.50098,-20.30127 C 166.70048,145.09933 171,136.00059 171,135.60059 171,135.30059 164.60019,135 156.7002,135 Z m 442.5,0 1.40039,3.20068 c 0.7,1.8 5.9001,13.59982 11.6001,26.29981 5.59999,12.59999 11.30019,25.59922 12.70019,28.69922 2.3,5.29999 2.79971,5.80078 5.69971,5.80078 3.1,-0.1 3.09914,-0.10013 17.09912,-31.1001 7.69999,-17.09998 14.19981,-31.50098 14.29981,-32.00098 0.3,-0.6 -2.79884,-0.89873 -7.79883,-0.69873 l -8.10059,0.29883 -7.00049,17.00098 c -3.89999,9.29999 -7.39882,17.79941 -7.79882,18.89941 -0.5,1.4 -2.7006,-3.29982 -8.10059,-17.2998 L 601.70068,135 h -8.40088 z m 66,0 v 5.90039 6 l 4.1001,0.30029 4.1001,0.29883 v 25.20117 L 659.10059,198 h 7.8999 H 675 V 166.5 135 h -12 z m 88.00049,0 v 5.90039 6 l 4.1001,0.30029 4.10009,0.29883 0.0996,25.00049 0.19922,25.00049 7.80029,0.29883 7.70069,0.30029 V 166.5 135 h -12 z m 210.89941,0 0.20069,6 0.19921,6 h 3.79981 c 4.59999,0 4.50039,-0.90065 4.40039,28.29932 V 198 h 7.80029 7.69922 V 166.5 135 H 961.8999 Z m 268.1001,0 1.8999,4.70068 c 22,55.09995 23.1002,58.29874 21.7002,63.69873 -0.8,3.2 -4.4998,5.10108 -11.2998,6.10108 l -5.2998,0.70019 v 6.49952 6.59912 l 6.0996,-0.59912 c 7.4,-0.6 15.9996,-4.69962 19.5996,-9.09961 2.1,-2.7 30.2003,-74.9004 30.3003,-77.90039 0,-0.4 -3.5007,-0.7002 -7.7007,-0.7002 h -7.7988 l -6.3003,18.30029 c -9.7,27.69998 -7.8999,26.29911 -13.8999,11.09912 -2.8,-7.09999 -6.4998,-16.59922 -8.2998,-21.19921 L 1233.8994,135 h -7.9995 z m -412.60693,11.28223 c 2.81249,0.0234 6.58242,1.01806 8.60742,2.51806 4.19999,3.1 6.09922,8.19952 6.19922,16.99951 0.2,13.39999 -4.79943,20.5001 -14.39942,20.6001 -9.29999,0.2 -14.20019,-6.69952 -14.20019,-19.99951 0,-6.89999 0.4001,-8.70098 2.6001,-12.50098 2.39999,-3.99999 4.39932,-5.69931 8.79931,-7.29931 0.625,-0.225 1.45606,-0.32569 2.39356,-0.31787 z m 326.17533,0.1831 c 3.0352,0.0236 6.3004,0.92207 8.4316,2.43457 4.4,3.1 6.2007,8.20011 6.2007,17.6001 0,7.29999 -0.4005,9.09981 -2.5005,12.7998 -3.1,5.2 -6.5999,7.2001 -12.3999,7.1001 -8.9,-0.2 -13.7007,-7.0004 -13.7007,-19.40039 0.1,-11.19999 3.4001,-17.89951 10.1001,-19.99951 1.1563,-0.375 2.489,-0.54541 3.8687,-0.53467 z m -739.23197,20.64112 c 1.17539,0.0205 2.26289,0.19365 3.46289,0.49365 1.89999,0.6 2.20019,1.30049 2.20019,5.50049 0,7.99999 -2.69981,11.79931 -9.7998,13.29931 -3.9,0.9 -9.9002,-0.8999 -11.2002,-3.3999 -1.7,-3.1 -1.19951,-8.49951 1.00049,-10.99951 1.1,-1.3 4.09981,-2.90059 6.7998,-3.60059 3.375,-0.9375 5.57764,-1.32763 7.53663,-1.29345 z m 162.89941,0.019 c 1.03855,-0.004 2.04483,0.16836 3.66357,0.47461 2.9,0.6 3.10108,0.90059 3.10108,5.10058 0,5.2 -2.10069,10.79961 -4.70069,12.09961 -6.49999,3.3 -15.6999,1.59931 -16.8999,-3.20068 -1.7,-6.89999 1.6003,-11.7 9.3003,-13.5 2.81249,-0.675 4.20036,-0.96951 5.53564,-0.97412 z"/>
  </g>
</svg>
